<svg id="Header_Logo" data-name="Header Logo" xmlns="http://www.w3.org/2000/svg" width="232.969" height="52" viewBox="0 0 232.969 52">
    <defs>
        <style>.cls-1,.cls-2{fill:#dea92c;fill-rule:evenodd}.cls-2{fill:#fff}</style>
    </defs>
    <path class="cls-1" d="M220.979 46.128s15.076-10.706 2.359-21.013c0 0 18.416 8.03.24 23.61 0 0-2.1 1.618-7.858 5.513a28.208 28.208 0 0 1-.54-4.165s3.72-2.306 5.799-3.945zM215.42 40.1s11.72-6.7 1.317-17.1c0 0 21.118 7.548 2.129 23.089a28.821 28.821 0 0 1-3.966 2.436 35.033 35.033 0 0 1 .52-8.425zm-4.12 29.437s-11-13.583.041-34.356c0 0-20.755 15.34-6.089 39.819m12.657-11.385s-10.527-15.07.321-34.562c0 0-18.145 16.159-5.619 39.356" transform="translate(-200.031 -23)"/>
    <path id="PROGRESSIVE_Baptist_Church_" data-name="PROGRESSIVE Baptist Church" class="cls-2" d="M251.486 40.917c0 2.433 0 4.436-.124 5.5-.1.735-.224 1.293-.721 1.394a3.77 3.77 0 0 1-.746.1.163.163 0 0 0-.2.152c0 .152.125.2.4.2.746 0 2.312-.076 2.387-.076.124 0 1.691.076 3.058.076.274 0 .4-.076.4-.2a.162.162 0 0 0-.2-.152 10.683 10.683 0 0 1-1.119-.1c-.746-.1-.9-.659-.969-1.394-.125-1.065-.125-3.067-.125-5.5V30.5a.449.449 0 0 1 .2-.482 3.006 3.006 0 0 1 1.069-.152 4.267 4.267 0 0 1 3.407 1.267 5.441 5.441 0 0 1 1.392 3.9 4.164 4.164 0 0 1-4.3 4.132c-.522 0-.672.025-.672.228a.236.236 0 0 0 .274.178 3.607 3.607 0 0 0 .522.025 5.825 5.825 0 0 0 6.117-6.033 4.444 4.444 0 0 0-1.243-3.016c-.4-.38-1.517-1.445-4.625-1.445-1.144 0-2.586.076-3.133.076-.2 0-1.691-.076-2.81-.076-.273 0-.4.051-.4.2a.175.175 0 0 0 .2.152 4.569 4.569 0 0 1 .846.076 1.241 1.241 0 0 1 1.069 1.445c.049.811.049 1.521.049 5.475v4.461zm15.591 0c0 2.433 0 4.436-.124 5.5-.1.735-.224 1.293-.721 1.394a3.77 3.77 0 0 1-.746.1.163.163 0 0 0-.2.152c0 .152.124.2.4.2.746 0 2.312-.076 2.337-.076.124 0 1.691.076 3.058.076.274 0 .4-.076.4-.2a.162.162 0 0 0-.2-.152 10.683 10.683 0 0 1-1.119-.1c-.745-.1-.9-.659-.969-1.394-.125-1.065-.125-3.067-.125-5.5v-.608a.168.168 0 0 1 .174-.2l3.059.051a.4.4 0 0 1 .323.152c.5.659 1.666 2.357 2.71 3.752 1.418 1.9 2.288 3.143 3.357 3.726a4.978 4.978 0 0 0 2.661.482h1.765c.448 0 .6-.051.6-.2a.205.205 0 0 0-.224-.152 5.855 5.855 0 0 1-.97-.076 5.116 5.116 0 0 1-3.033-1.825c-1.442-1.571-3.133-3.827-5.172-6.489 2.238-2.1 3.008-3.98 3.008-5.855a4.462 4.462 0 0 0-1.715-3.447 7.542 7.542 0 0 0-4.55-1.115c-.771 0-2.661.076-2.934.076-.125 0-1.691-.076-2.81-.076-.274 0-.4.051-.4.2a.174.174 0 0 0 .2.152 4.558 4.558 0 0 1 .845.076 1.241 1.241 0 0 1 1.07 1.445c.049.811.049 1.521.049 5.475v4.461zm1.989-10.544a.306.306 0 0 1 .2-.3 7.368 7.368 0 0 1 1.666-.152c2.661 0 4.3 1.9 4.3 5.069a4.67 4.67 0 0 1-1.517 3.9 3.173 3.173 0 0 1-1.865.482 6.735 6.735 0 0 1-2.611-.406.333.333 0 0 1-.174-.3v-8.293zm14.3 8.289c0 4.563 2.835 9.962 9.648 9.962 5.992 0 9.921-4.689 9.921-10.367 0-5.906-4.177-9.505-9.772-9.505-6.863-.001-9.799 5.803-9.799 9.909zm2.362-.71c0-5.551 3.109-8.339 7.261-8.339 3.929 0 7.559 3.27 7.559 9.353 0 7.376-4.625 8.694-6.863 8.694-4.477 0-7.959-3.802-7.959-9.708zm35.036 8.162a.923.923 0 0 1-.5.887 6.67 6.67 0 0 1-2.834.532 8.961 8.961 0 0 1-6.515-2.712 10.443 10.443 0 0 1-2.635-7.021c0-2.966 1.019-5.272 2.461-6.438a7.839 7.839 0 0 1 5.321-1.673c3.208 0 5.222 1.09 5.843 2.053a3.956 3.956 0 0 1 .523 1.673c.024.228.049.38.174.38.174 0 .223-.127.223-.532a32.709 32.709 0 0 1 .174-3.6c0-.1-.049-.2-.3-.228a12.143 12.143 0 0 1-2.014-.253 20.9 20.9 0 0 0-3.8-.431 12.021 12.021 0 0 0-6.614 1.6 9.66 9.66 0 0 0-4.153 8.339 9.984 9.984 0 0 0 2.959 7.224 13.322 13.322 0 0 0 13.452 1.572c.3-.178.323-.228.323-1.369v-2.842c0-1.065 0-1.825.05-2.636.05-.887.249-1.318.92-1.445a3.63 3.63 0 0 1 .622-.076.174.174 0 0 0 .2-.152c0-.152-.124-.2-.4-.2-.746 0-2.313.076-2.437.076s-1.691-.076-2.81-.076c-.273 0-.4.051-.4.2a.175.175 0 0 0 .2.152 4.569 4.569 0 0 1 .846.076c.994.279 1.119.558 1.119 2.611v4.309zm9.623-5.2c0 2.433 0 4.436-.124 5.5-.1.735-.224 1.293-.721 1.394a3.77 3.77 0 0 1-.746.1.163.163 0 0 0-.2.152c0 .152.124.2.4.2.746 0 2.312-.076 2.337-.076.124 0 1.691.076 3.058.076.274 0 .4-.076.4-.2a.163.163 0 0 0-.2-.152 10.636 10.636 0 0 1-1.119-.1c-.746-.1-.9-.659-.969-1.394-.125-1.065-.125-3.067-.125-5.5v-.605a.168.168 0 0 1 .174-.2l3.059.051a.4.4 0 0 1 .323.152c.5.659 1.666 2.357 2.71 3.752 1.417 1.9 2.288 3.143 3.357 3.726a4.974 4.974 0 0 0 2.66.482h1.766c.447 0 .6-.051.6-.2a.205.205 0 0 0-.224-.152 5.855 5.855 0 0 1-.97-.076 5.113 5.113 0 0 1-3.033-1.825c-1.443-1.571-3.133-3.827-5.172-6.489 2.238-2.1 3.008-3.98 3.008-5.855a4.462 4.462 0 0 0-1.715-3.447 7.543 7.543 0 0 0-4.551-1.115c-.77 0-2.66.076-2.934.076-.124 0-1.69-.076-2.809-.076-.274 0-.4.051-.4.2a.174.174 0 0 0 .2.152 4.558 4.558 0 0 1 .845.076 1.239 1.239 0 0 1 1.069 1.445c.05.811.05 1.521.05 5.475v4.461zm1.989-10.544a.306.306 0 0 1 .2-.3 7.368 7.368 0 0 1 1.666-.152c2.661 0 4.3 1.9 4.3 5.069a4.67 4.67 0 0 1-1.517 3.9 3.173 3.173 0 0 1-1.865.482 6.735 6.735 0 0 1-2.611-.406.333.333 0 0 1-.174-.3v-8.29zm16.76 10.544c0 2.433 0 4.436-.125 5.5-.1.735-.223 1.293-.721 1.394a3.76 3.76 0 0 1-.746.1.162.162 0 0 0-.2.152c0 .152.124.2.4.2.373 0 .945-.051 1.443-.051.522-.025.944-.025.994-.025.373 0 .97.025 1.94.076.969.025 2.337.076 4.2.076.969 0 1.168 0 1.342-.659.125-.532.324-2.256.324-2.459 0-.177 0-.38-.15-.38-.124 0-.174.1-.223.38a2.028 2.028 0 0 1-1.119 1.825 7.006 7.006 0 0 1-2.387.279c-2.437 0-2.81-.329-2.885-2.078-.024-.532 0-3.473 0-4.334v-2.223a.159.159 0 0 1 .174-.177c.423 0 2.885.051 3.556.127a1.23 1.23 0 0 1 1.293.887 2.622 2.622 0 0 1 .1.836.188.188 0 0 0 .174.228c.174 0 .174-.279.174-.482 0-.178.049-1.115.1-1.622.075-.836.2-1.267.2-1.419s-.05-.2-.124-.2a.759.759 0 0 0-.373.33 1.651 1.651 0 0 1-1.169.355c-.572.051-3.63.051-3.953.051-.125 0-.15-.076-.15-.254v-7c0-.177.05-.253.15-.253.273 0 2.983.025 3.406.076 1.343.152 1.591.456 1.765.862a2.755 2.755 0 0 1 .15.912c0 .2.049.33.2.33a.3.3 0 0 0 .17-.274c.049-.3.1-1.419.124-1.673.075-.71.2-1.014.2-1.191 0-.127-.025-.228-.1-.228a1.955 1.955 0 0 0-.348.127 6.5 6.5 0 0 1-1.069.127c-.572.025-5.52.025-5.694.025l-1.019-.051c-.547-.025-1.219-.025-1.791-.025-.273 0-.4.051-.4.2a.174.174 0 0 0 .2.152 4.569 4.569 0 0 1 .846.076 1.241 1.241 0 0 1 1.069 1.445c.05.811.05 1.521.05 5.475v4.461zm16.908 7.706a6.45 6.45 0 0 0 3.755-1.065 5.291 5.291 0 0 0 2.113-4.208c0-2.028-.7-3.6-3.63-5.957l-.7-.558c-2.387-1.9-3.034-2.814-3.034-4.258a2.851 2.851 0 0 1 3.059-2.94c2.287 0 2.958 1.065 3.108 1.343a4.534 4.534 0 0 1 .323 1.267c.025.2.05.33.2.33.124 0 .174-.178.174-.583 0-1.724.1-2.56.1-2.687s-.049-.177-.248-.177a4 4 0 0 1-.871-.127 9.457 9.457 0 0 0-2.312-.254c-3.158 0-5.147 1.85-5.147 4.563 0 1.724.6 3.3 3.232 5.5l1.119.938c2.139 1.8 2.86 2.814 2.86 4.563a3.35 3.35 0 0 1-3.556 3.371c-1.666 0-3.307-.71-3.68-2.585a4.525 4.525 0 0 1-.075-.938c0-.2-.024-.279-.174-.279-.124 0-.174.127-.2.406-.025.406-.125 1.419-.125 2.687 0 .684.025.786.373.963a7.422 7.422 0 0 0 3.334.688zm14.173 0a6.448 6.448 0 0 0 3.755-1.065 5.288 5.288 0 0 0 2.113-4.208c0-2.028-.7-3.6-3.63-5.957l-.7-.558c-2.387-1.9-3.034-2.814-3.034-4.258a2.851 2.851 0 0 1 3.059-2.94c2.287 0 2.959 1.065 3.108 1.343a4.534 4.534 0 0 1 .323 1.267c.025.2.05.33.2.33.124 0 .174-.178.174-.583 0-1.724.1-2.56.1-2.687s-.05-.177-.249-.177a3.987 3.987 0 0 1-.87-.127 9.472 9.472 0 0 0-2.313-.254c-3.158 0-5.147 1.85-5.147 4.563 0 1.724.6 3.3 3.233 5.5l1.119.938c2.138 1.8 2.859 2.814 2.859 4.563a3.35 3.35 0 0 1-3.556 3.371c-1.666 0-3.307-.71-3.68-2.585a4.585 4.585 0 0 1-.074-.938c0-.2-.025-.279-.174-.279-.125 0-.174.127-.2.406-.025.406-.125 1.419-.125 2.687 0 .684.025.786.373.963a7.425 7.425 0 0 0 3.334.688zm14.522-12.167c0-3.954 0-4.664.049-5.475.05-.887.249-1.318.92-1.445a3.641 3.641 0 0 1 .622-.076.175.175 0 0 0 .2-.152c0-.152-.124-.2-.4-.2-.746 0-2.312.076-2.437.076s-1.69-.076-2.511-.076c-.273 0-.4.051-.4.2a.175.175 0 0 0 .2.152 3.211 3.211 0 0 1 .771.1c.547.127.8.558.845 1.42.05.811.05 1.521.05 5.475v4.461c0 2.433 0 4.436-.124 5.5-.1.735-.224 1.293-.721 1.394a3.78 3.78 0 0 1-.746.1.163.163 0 0 0-.2.152c0 .152.124.2.4.2.746 0 2.312-.076 2.436-.076s1.691.076 3.059.076c.273 0 .4-.076.4-.2a.163.163 0 0 0-.2-.152 10.636 10.636 0 0 1-1.119-.1c-.746-.1-.9-.659-.97-1.394-.124-1.065-.124-3.067-.124-5.5v-4.457zm9.471-4.253a9.848 9.848 0 0 1-.671-2.1.51.51 0 0 1 .323-.507 2.846 2.846 0 0 1 .945-.127c.174 0 .249-.051.249-.177s-.224-.177-.672-.177c-.945 0-2.063.076-2.312.076-.3 0-1.716-.076-2.909-.076-.4 0-.647.025-.647.177a.167.167 0 0 0 .2.177 3.8 3.8 0 0 1 .945.1c.87.254 1.243.532 1.79 1.952l6.092 15.538c.473 1.217.6 1.572.9 1.572.249 0 .348-.406 1.045-1.926.571-1.242 1.69-3.98 3.207-7.68 1.268-3.118 2.511-6.159 2.785-6.869.671-1.724 1.044-2.155 1.368-2.383a2.218 2.218 0 0 1 1.193-.3c.2 0 .3-.051.3-.177s-.149-.177-.422-.177c-.721 0-1.791.076-1.94.076-.3 0-1.442-.076-2.436-.076-.4 0-.548.051-.548.2 0 .127.125.152.274.152a3.084 3.084 0 0 1 .945.1.627.627 0 0 1 .323.583 3.683 3.683 0 0 1-.224.963c-.547 1.825-3.879 10.671-5.321 14.068zm17.829 8.719c0 2.433 0 4.436-.125 5.5-.1.735-.223 1.293-.721 1.394a3.76 3.76 0 0 1-.746.1.163.163 0 0 0-.2.152c0 .152.125.2.4.2.373 0 .945-.051 1.442-.051.523-.025.945-.025 1-.025.373 0 .97.025 1.939.076.97.025 2.338.076 4.2.076.969 0 1.168 0 1.342-.659.125-.532.324-2.256.324-2.459 0-.177 0-.38-.15-.38-.124 0-.174.1-.223.38a2.028 2.028 0 0 1-1.119 1.825 7.006 7.006 0 0 1-2.387.279c-2.437 0-2.81-.329-2.885-2.078-.025-.532 0-3.473 0-4.334v-2.228a.159.159 0 0 1 .174-.177c.423 0 2.885.051 3.556.127a1.23 1.23 0 0 1 1.293.887 2.647 2.647 0 0 1 .1.836.189.189 0 0 0 .175.228c.174 0 .174-.279.174-.482 0-.178.049-1.115.1-1.622.075-.836.2-1.267.2-1.419s-.05-.2-.124-.2a.759.759 0 0 0-.373.33 1.651 1.651 0 0 1-1.169.355c-.572.051-3.63.051-3.953.051-.125 0-.15-.076-.15-.254v-7c0-.177.05-.253.15-.253.273 0 2.983.025 3.406.076 1.343.152 1.591.456 1.765.862a2.755 2.755 0 0 1 .15.912c0 .2.049.33.2.33a.3.3 0 0 0 .167-.274c.049-.3.1-1.419.124-1.673.074-.71.2-1.014.2-1.191 0-.127-.025-.228-.1-.228a1.955 1.955 0 0 0-.348.127 6.52 6.52 0 0 1-1.069.127c-.572.025-5.52.025-5.694.025l-1.019-.051c-.547-.025-1.219-.025-1.791-.025-.273 0-.4.051-.4.2a.175.175 0 0 0 .2.152 4.569 4.569 0 0 1 .846.076 1.241 1.241 0 0 1 1.069 1.445c.05.811.05 1.521.05 5.475v4.461zM316.274 68.471h3.866c1.9 0 3.158-.9 3.158-2.421v-.025a2.22 2.22 0 0 0-1.865-2.142 2.139 2.139 0 0 0 1.38-2.053v-.03a1.992 1.992 0 0 0-.559-1.419 3.162 3.162 0 0 0-2.275-.786h-3.7v8.872zm5.545-6.5c0 1.039-.821 1.584-2 1.584h-2.573V60.5h2.648c1.243 0 1.927.57 1.927 1.445v.025zm.485 3.992v.025c0 .989-.821 1.584-2.139 1.584h-2.921v-3.13h2.747c1.517-.001 2.309.558 2.309 1.519zm2.2 2.509h1.007l1.032-2.345h4.737l1.019 2.345h1.057l-3.966-8.935h-.92zm2.425-3.257l1.989-4.512 1.976 4.512h-3.965zm8.143 3.257h.982V65.34h2.114c1.852 0 3.419-.989 3.419-2.9v-.027c0-1.749-1.293-2.813-3.258-2.813h-3.257v8.872zm.982-4.043v-3.9h2.2c1.405 0 2.337.659 2.337 1.926v.025c0 1.166-.945 1.952-2.387 1.952h-2.151zm9.623 4.043h1v-7.948h2.921V59.6h-6.837v.925h2.921v7.947zm5.844 0h.979V59.6h-.982v8.872zm6.514.127c1.728 0 2.971-.989 2.971-2.509v-.027c0-1.356-.895-2.078-2.834-2.509-1.915-.418-2.362-.887-2.362-1.724v-.03a1.612 1.612 0 0 1 1.852-1.432 3.783 3.783 0 0 1 2.512.963l.571-.773a4.486 4.486 0 0 0-3.058-1.09 2.586 2.586 0 0 0-2.859 2.421v.025c0 1.458.92 2.117 2.921 2.56 1.828.393 2.263.862 2.263 1.686v.03a1.68 1.68 0 0 1-1.94 1.508 4.1 4.1 0 0 1-2.983-1.255l-.61.735a5.041 5.041 0 0 0 3.556 1.422zm7.087-.127h.994v-7.948h2.922V59.6H362.2v.925h2.922v7.947zm13.464.152a4.493 4.493 0 0 0 3.481-1.559l-.646-.646a3.746 3.746 0 0 1-2.81 1.28 3.472 3.472 0 0 1-3.369-3.663v-.026a3.449 3.449 0 0 1 3.369-3.637 3.749 3.749 0 0 1 2.735 1.217l.672-.735a4.488 4.488 0 0 0-3.394-1.407 4.43 4.43 0 0 0-4.4 4.588v.024a4.385 4.385 0 0 0 4.362 4.563zm5.2-.152h.983v-3.993h5.022v3.992h.982V59.6h-.982v3.941h-5.022V59.6h-.983v8.872zm12.93.139c2.176 0 3.631-1.343 3.631-3.929V59.6h-.983v5.158c0 1.939-1.019 2.928-2.623 2.928-1.653 0-2.66-1.077-2.66-2.991V59.6h-.981v5.158c0 2.509 1.463 3.852 3.613 3.852zm5.956-.139h.982v-3.448h2.486l2.524 3.447h1.206l-2.673-3.625a2.576 2.576 0 0 0 2.362-2.586v-.025a2.474 2.474 0 0 0-.671-1.749 3.393 3.393 0 0 0-2.474-.887h-3.742v8.872zm.982-4.347v-3.6h2.685c1.4 0 2.226.659 2.226 1.749v.026c0 1.141-.933 1.825-2.238 1.825h-2.673zm11.985 4.5a4.5 4.5 0 0 0 3.481-1.559l-.647-.646a3.746 3.746 0 0 1-2.809 1.28 3.472 3.472 0 0 1-3.369-3.663v-.027a3.449 3.449 0 0 1 3.369-3.637 3.751 3.751 0 0 1 2.735 1.217l.671-.735a4.486 4.486 0 0 0-3.394-1.407 4.43 4.43 0 0 0-4.4 4.588v.024a4.386 4.386 0 0 0 4.36 4.563zm5.2-.152h.982v-3.994h5.023v3.992h.982V59.6h-.982v3.941h-5.023V59.6h-.982v8.872z" transform="translate(-200.031 -23)"/>
    <path id="Rectangle_5_copy_8" data-name="Rectangle 5 copy 8" class="cls-1" d="M248.969 52.388H433v.83H248.969v-.83z" transform="translate(-200.031 -23)"/>
</svg>